<svg width="61" height="61" viewBox="0 0 61 61" fill="none" xmlns="http://www.w3.org/2000/svg">
<path d="M30.3675 46.5937C40.8678 46.5937 49.38 38.8632 49.38 29.3271C49.38 19.7909 40.8678 12.0604 30.3675 12.0604C19.8672 12.0604 11.355 19.7909 11.355 29.3271C11.355 33.3551 12.8245 37.5983 16.2029 41.0258C16.4324 41.2587 16.5673 41.5682 16.5364 41.8937C16.4294 43.0207 15.954 45.8809 13.8411 49.045C13.5462 49.4865 13.8861 50.0797 14.409 49.9878C16.6972 49.5852 21.2617 48.524 24.1189 46.1378C24.2763 46.0064 24.4867 45.9573 24.6855 46.0073C26.4078 46.4399 28.5284 46.5937 30.3675 46.5937Z" stroke="white" stroke-width="3.6" stroke-linecap="round"/>
</svg>
