<svg width="150" height="150" viewBox="0 0 150 150" fill="none" xmlns="http://www.w3.org/2000/svg">
<path d="M97.7625 44.7168L40.3087 64.0471C35.7802 65.5707 35.7032 71.9481 40.1937 73.5805L63.6852 82.1203C65.071 82.6241 66.1675 83.7084 66.6867 85.0884L75.8454 109.431C77.5285 113.904 83.9076 113.754 85.378 109.206L104.179 51.0574C105.454 47.1112 101.693 43.3943 97.7625 44.7168Z" fill="white"/>
<path fill-rule="evenodd" clip-rule="evenodd" d="M75 133.165C107.124 133.165 133.165 107.124 133.165 75C133.165 42.8764 107.124 16.835 75 16.835C42.8764 16.835 16.835 42.8764 16.835 75C16.835 107.124 42.8764 133.165 75 133.165ZM75 150C116.421 150 150 116.421 150 75C150 33.5786 116.421 0 75 0C33.5786 0 0 33.5786 0 75C0 116.421 33.5786 150 75 150Z" fill="white"/>
</svg>
