<svg width="61" height="61" viewBox="0 0 61 61" fill="none" xmlns="http://www.w3.org/2000/svg">
<path fill-rule="evenodd" clip-rule="evenodd" d="M12.9325 30.9872C12.9325 40.5969 20.7228 48.3872 30.3325 48.3872C39.9423 48.3872 47.7325 40.5969 47.7325 30.9872C47.7325 21.3774 39.9423 13.5872 30.3325 13.5872C20.7228 13.5872 12.9325 21.3774 12.9325 30.9872ZM30.3325 9.98718C18.7345 9.98718 9.33252 19.3892 9.33252 30.9872C9.33252 42.5852 18.7345 51.9872 30.3325 51.9872C41.9305 51.9872 51.3325 42.5852 51.3325 30.9872C51.3325 19.3892 41.9305 9.98718 30.3325 9.98718ZM28.5302 39.1247C28.5302 40.1188 29.3361 40.9247 30.3302 40.9247C31.3243 40.9247 32.1302 40.1188 32.1302 39.1247V28.5497C32.1302 27.5556 31.3243 26.7497 30.3302 26.7497C29.3361 26.7497 28.5302 27.5556 28.5302 28.5497V39.1247ZM30.3325 21.0486C31.4095 21.0486 32.2825 21.9217 32.2825 22.9986C32.2825 24.0756 31.4095 24.9486 30.3325 24.9486C29.2556 24.9486 28.3825 24.0756 28.3825 22.9986C28.3825 21.9217 29.2556 21.0486 30.3325 21.0486Z" fill="white"/>
</svg>
