<svg width="61" height="61" viewBox="0 0 61 61" fill="none" xmlns="http://www.w3.org/2000/svg">
<path d="M14.817 42.7113H45.8435C46.1108 42.7113 46.2446 42.3881 46.0556 42.1991L42.4455 38.589C42.3957 38.5392 42.3678 38.4717 42.3678 38.4013V26.0238C42.3678 19.3756 36.9784 13.9863 30.3303 13.9863C23.6821 13.9863 18.2928 19.3756 18.2928 26.0238V38.4013C18.2928 38.4717 18.2648 38.5392 18.215 38.589L14.6049 42.1991C14.4159 42.3881 14.5498 42.7113 14.817 42.7113Z" stroke="white" stroke-width="3.6"/>
<path d="M27.2739 12.0168C27.2739 10.3289 28.6423 8.96057 30.3302 8.96057V8.96057C32.0181 8.96057 33.3864 10.3289 33.3864 12.0168V15.0731H27.2739V12.0168Z" fill="white"/>
<path d="M34.061 46.2944C34.3924 46.2944 34.6655 46.5646 34.6186 46.8927C34.3227 48.9601 32.5152 50.5507 30.3298 50.5507C28.1443 50.5507 26.3369 48.9601 26.041 46.8927C25.994 46.5646 26.2672 46.2944 26.5985 46.2944H34.061Z" fill="white"/>
</svg>
