<svg width="61" height="61" viewBox="0 0 61 61" fill="none" xmlns="http://www.w3.org/2000/svg">
<path fill-rule="evenodd" clip-rule="evenodd" d="M14.3686 26.3854V19.4505C14.3686 18.4338 15.0091 17.5275 15.9675 17.1881L27.1258 13.237C29.199 12.5029 31.4614 12.5029 33.5345 13.237L44.6928 17.1881C45.6512 17.5275 46.2918 18.4338 46.2918 19.4505V26.3854C46.2918 33.922 42.5674 40.9717 36.3417 45.2194L34.0499 46.783C31.8063 48.3137 28.854 48.3137 26.6105 46.783L24.3187 45.2194C18.093 40.9717 14.3686 33.922 14.3686 26.3854ZM25.9242 9.84347C28.7748 8.83408 31.8856 8.83407 34.7362 9.84347L45.8945 13.7946C48.2904 14.643 49.8918 16.9088 49.8918 19.4505V26.3854C49.8918 35.112 45.5793 43.2749 38.3706 48.1931L36.0788 49.7568C32.6115 52.1225 28.0489 52.1225 24.5815 49.7568L22.2897 48.1931C15.081 43.2749 10.7686 35.112 10.7686 26.3854V19.4505C10.7686 16.9088 12.37 14.643 14.7658 13.7946L25.9242 9.84347ZM40.8682 25.4141C41.5441 24.6851 41.501 23.5462 40.772 22.8703C40.0429 22.1945 38.9041 22.2376 38.2282 22.9666L28.1442 33.8437L23.9835 29.7314C23.2765 29.0326 22.1368 29.0392 21.438 29.7463C20.7391 30.4533 20.7458 31.593 21.4529 32.2918L26.0542 36.8396C27.2593 38.0307 29.2111 37.9881 30.3631 36.7455L40.8682 25.4141Z" fill="white"/>
</svg>
