<svg width="61" height="61" viewBox="0 0 61 61" fill="none" xmlns="http://www.w3.org/2000/svg">
<path fill-rule="evenodd" clip-rule="evenodd" d="M30.3325 9.78723C29.7262 9.78723 29.1258 9.81293 28.5325 9.8633C17.7772 10.7763 9.33252 19.7956 9.33252 30.7872C9.33252 42.3852 18.7345 51.7872 30.3325 51.7872H30.9308C41.5918 51.7872 50.3429 43.6099 51.2542 33.1854C51.306 32.5923 51.3325 31.992 51.3325 31.3854V30.7872C51.3325 30.3838 51.3211 29.9832 51.2987 29.5854C50.7096 19.1446 42.4932 10.7428 32.1325 9.8633C31.5392 9.81293 30.9389 9.78723 30.3325 9.78723ZM28.5325 13.4792C19.7685 14.3799 12.9325 21.7852 12.9325 30.7872C12.9325 40.3969 20.7228 48.1872 30.3325 48.1872H30.9308C39.602 48.1872 46.7391 41.6184 47.6372 33.1854H32.7325C30.4129 33.1854 28.5325 31.305 28.5325 28.9854V13.4792ZM47.6917 29.5854H32.7325C32.4011 29.5854 32.1325 29.3168 32.1325 28.9854V13.4792C40.5032 14.3395 47.1151 21.1337 47.6917 29.5854Z" fill="white"/>
</svg>
