<svg width="61" height="61" viewBox="0 0 61 61" fill="none" xmlns="http://www.w3.org/2000/svg">
<g clip-path="url(#clip0_153_179)">
<path d="M50.243 27.2868C50.243 32.5461 47.2055 39.0993 37.868 39.0993C36.7809 39.0993 35.9081 39.1228 35.2075 39.1607C33.2674 39.2656 31.5335 40.6959 31.875 42.6518C32.1637 44.3044 33.518 45.0962 33.518 46.9998C33.518 48.4956 32.696 50.5059 29.618 50.5666C19.9055 50.7584 10.418 41.6023 10.418 30.355C10.418 19.1076 19.3332 9.9899 30.3305 9.9899C41.993 9.9899 50.243 18.5425 50.243 27.2868Z" stroke="white" stroke-width="3.6"/>
<path d="M18.5179 30.2675C20.1545 30.2675 21.4811 28.9107 21.4811 27.237C21.4811 25.5632 20.1545 24.2064 18.5179 24.2064C16.8814 24.2064 15.5547 25.5632 15.5547 27.237C15.5547 28.9107 16.8814 30.2675 18.5179 30.2675Z" fill="white"/>
<path d="M25.1562 21.8426C26.7928 21.8426 28.1194 20.4858 28.1194 18.812C28.1194 17.1383 26.7928 15.7815 25.1562 15.7815C23.5197 15.7815 22.193 17.1383 22.193 18.812C22.193 20.4858 23.5197 21.8426 25.1562 21.8426Z" fill="white"/>
<path d="M35.4687 21.8426C37.1053 21.8426 38.4319 20.4858 38.4319 18.812C38.4319 17.1383 37.1053 15.7815 35.4687 15.7815C33.8322 15.7815 32.5055 17.1383 32.5055 18.812C32.5055 20.4858 33.8322 21.8426 35.4687 21.8426Z" fill="white"/>
<path d="M42.0666 29.4038C43.7032 29.4038 45.0298 28.047 45.0298 26.3733C45.0298 24.6995 43.7032 23.3427 42.0666 23.3427C40.4301 23.3427 39.1034 24.6995 39.1034 26.3733C39.1034 28.047 40.4301 29.4038 42.0666 29.4038Z" fill="white"/>
</g>
<defs>
<clipPath id="clip0_153_179">
<rect width="45" height="45" fill="white" transform="translate(8 8)"/>
</clipPath>
</defs>
</svg>
